<svg width="413" height="115" viewBox="0 0 413 115" fill="none" xmlns="http://www.w3.org/2000/svg">
<g clip-path="url(#clip0_587_49571)">
<path d="M164.9 29.4999C164.9 36.8999 159.1 41.7999 150.4 41.7999H141.8V54.2999H138V17.4999C142.1 17.1999 146.2 17.0999 150.5 17.0999C159 17.0999 164.9 21.5999 164.9 29.4999ZM150.8 38.3999C156.9 38.3999 161.1 34.8999 161.1 29.5999C161.1 23.7999 156.9 20.6999 150.8 20.6999C147.9 20.6999 145.1 20.7999 141.8 20.8999V38.3999H150.8V38.3999Z" fill="#3A2014"/>
<path d="M184.1 32.2999C180.5 32.2999 177.5 32.3999 173.9 32.7999V54.2H170.2V30C174.7 29.2 179.5 28.7 184.1 28.7V32.2999V32.2999Z" fill="#3A2014"/>
<path d="M214.7 41.6998C214.7 49.7998 209 55.1998 201 55.1998C193 55.1998 187.3 49.7998 187.3 41.6998C187.3 33.6998 193 28.2998 201 28.2998C209 28.2998 214.7 33.6998 214.7 41.6998ZM211 41.6998C211 35.6998 206.9 31.6998 201.1 31.6998C195.3 31.6998 191.2 35.6998 191.2 41.6998C191.2 47.7998 195.3 51.7998 201.1 51.7998C206.9 51.7998 211 47.7998 211 41.6998Z" fill="#3A2014"/>
<path d="M245 53.7999C238.3 54.9999 235.8 54.9999 231.9 54.9999C224.5 54.9999 219.4 49.8999 219.4 41.5999C219.4 33.6999 224.1 28.3999 232.3 28.3999C235.3 28.3999 238.1 28.6999 241.2 29.4999V15.8999H244.9V53.7999H245ZM223.1 41.6999C223.1 47.8999 226.5 51.9999 232.6 51.9999C234.9 51.9999 236.9 51.9999 241.3 51.1999V32.7999C238.1 31.8999 235.4 31.6999 232.8 31.6999C226.4 31.6999 223.1 35.7999 223.1 41.6999Z" fill="#3A2014"/>
<path d="M277.1 53.7998C273.4 54.6998 267.9 55.1998 263.4 55.1998C257.1 55.1998 253.2 51.9998 253.2 44.9998V29.2998H256.9V44.1998C256.9 49.1998 259.4 51.8998 264.1 51.8998C266.9 51.8998 270 51.6998 273.4 51.0998V29.2998H277.1V53.7998Z" fill="#3A2014"/>
<path d="M288.8 51.0999H305V54.2999H283.6V52.3999L299.5 32.5999H284.2V29.3999H304.6V31.5999L288.8 51.0999Z" fill="#3A2014"/>
<path d="M310.5 20.2999C310.5 18.6999 311.7 17.5999 313.2 17.5999C314.7 17.5999 315.9 18.6999 315.9 20.2999C315.9 21.7999 314.7 22.9999 313.2 22.9999C311.7 22.8999 310.5 21.7999 310.5 20.2999ZM315.1 54.2999H311.4V29.2999H315.1V54.2999Z" fill="#3A2014"/>
<path d="M347.6 38.7V54.3H343.9V39.6C343.9 34.8 341.2 31.9 336.7 31.9C333.9 31.9 330.8 32.1 327.4 32.7V54.4H323.7V29.9C327.4 29.1 332.9 28.5 337.4 28.5C343.7 28.5 347.6 32.3 347.6 38.7Z" fill="#3A2014"/>
<path d="M379 53.7999C372.3 54.9999 369.8 54.9999 365.9 54.9999C358.5 54.9999 353.4 49.8999 353.4 41.5999C353.4 33.6999 358.1 28.3999 366.3 28.3999C369.3 28.3999 372.1 28.6999 375.2 29.4999V15.8999H378.9V53.7999H379ZM357.1 41.6999C357.1 47.8999 360.5 51.9999 366.6 51.9999C368.9 51.9999 370.9 51.9999 375.3 51.1999V32.7999C372.1 31.8999 369.4 31.6999 366.8 31.6999C360.4 31.6999 357.1 35.7999 357.1 41.6999Z" fill="#3A2014"/>
<path d="M412.7 41.6998C412.7 49.7998 407 55.1998 399 55.1998C391 55.1998 385.3 49.7998 385.3 41.6998C385.3 33.6998 391 28.2998 399 28.2998C407 28.2998 412.7 33.6998 412.7 41.6998ZM409 41.6998C409 35.6998 404.9 31.6998 399.1 31.6998C393.3 31.6998 389.2 35.6998 389.2 41.6998C389.2 47.7998 393.3 51.7998 399.1 51.7998C404.9 51.7998 409 47.7998 409 41.6998Z" fill="#3A2014"/>
<path d="M161.7 66.9999C160 66.6999 158.3 66.5999 156.8 66.5999C154.5 66.5999 152.4 66.8999 150.6 67.5999C148.8 68.1999 147.3 69.0999 146.1 70.2999C144.9 71.4999 144 72.7999 143.4 74.3999C142.8 75.9999 142.5 77.6999 142.5 79.4999C142.5 81.4999 142.8 83.2999 143.5 84.8999C144.2 86.4999 145.1 87.8999 146.3 89.0999C147.5 90.2999 149 91.0999 150.7 91.7999C152.4 92.4999 154.3 92.6999 156.3 92.6999C157.7 92.6999 159.5 92.5999 161.5 92.2999C163.5 91.9999 165.6 91.5999 167.9 91.0999L169.1 96.7999C167 97.3999 164.8 97.8999 162.5 98.2999C160.2 98.6999 158.1 98.8999 156 98.8999C153 98.8999 150.2 98.3999 147.7 97.4999C145.2 96.5999 143.1 95.2999 141.3 93.5999C139.5 91.8999 138.2 89.8999 137.2 87.4999C136.2 85.0999 135.7 82.4999 135.7 79.5999C135.7 76.6999 136.2 74.0999 137.2 71.7999C138.2 69.3999 139.6 67.3999 141.3 65.6999C143.1 63.9999 145.2 62.6999 147.7 61.7999C150.2 60.8999 153 60.3999 156.1 60.3999C158.3 60.3999 160.5 60.4999 162.6 60.7999C164.7 61.0999 166.8 61.4999 168.9 61.9999L167.7 68.0999C165.4 67.5999 163.5 67.1999 161.7 66.9999Z" fill="#3A2014"/>
<path d="M191.1 72.2998C192.6 72.7998 193.9 73.5998 195 74.5998C196.1 75.5998 197 76.7998 197.6 78.1998C198.2 79.5998 198.6 81.0998 198.6 82.7998C198.6 83.2998 198.6 83.7998 198.6 84.1998C198.6 84.5998 198.6 84.8998 198.5 85.2998C198.5 85.5998 198.4 85.9998 198.4 86.2998C198.3 86.6998 198.3 87.0998 198.2 87.4998H179.2C179.7 89.1998 180.6 90.5998 182 91.5998C183.4 92.5998 185.2 93.0998 187.4 93.0998C188.6 93.0998 189.9 92.9998 191.3 92.6998C192.7 92.4998 194.5 92.0998 196.6 91.5998L197.5 96.6998C195.5 97.2998 193.6 97.7998 192 98.0998C190.4 98.3998 188.8 98.5998 187.3 98.5998C184.9 98.5998 182.8 98.1998 180.9 97.4998C179 96.7998 177.6 95.7998 176.3 94.5998C175.1 93.3998 174.2 91.8998 173.5 90.2998C172.8 88.6998 172.6 86.8998 172.6 84.8998C172.6 82.7998 172.9 80.8998 173.6 79.1998C174.3 77.4998 175.2 76.0998 176.4 74.8998C177.6 73.6998 179 72.7998 180.7 72.1998C182.4 71.5998 184.1 71.2998 186 71.2998C188 71.4998 189.6 71.6998 191.1 72.2998ZM181.4 78.0998C180.1 79.1998 179.4 80.7998 179.1 82.6998H193C192.9 80.7998 192.3 79.1998 191 78.0998C189.8 76.9998 188.2 76.3998 186.2 76.3998C184.3 76.3998 182.7 76.9998 181.4 78.0998Z" fill="#3A2014"/>
<path d="M214.8 77.7C213.2 77.8 211.7 77.9 210.1 78V98H203.9V73.1C205 72.9 206.2 72.7 207.6 72.5C209 72.3 210.3 72.2 211.7 72C213.1 71.8 214.5 71.7 215.8 71.6C217.2 71.5 218.5 71.5 219.7 71.5V77.6C218 77.7 216.3 77.7 214.8 77.7Z" fill="#3A2014"/>
<path d="M241.7 98.3C241.2 98.4 240.7 98.5 240.2 98.5C239.7 98.5 239.2 98.5999 238.6 98.6999C238 98.7999 237.3 98.8 236.5 98.8C233.4 98.8 231.1 97.8999 229.4 96.1999C227.8 94.4999 226.9 91.9999 226.9 88.5999V77.9H221.3V72.3H226.9V62.7H233.1V72.3H241.5V77.9H233.1V88C233.1 89.7 233.4 91 234.1 91.9C234.8 92.8 235.9 93.1999 237.6 93.1999C238.4 93.1999 239.2 93.1999 240 93.0999C240.8 92.9999 241.6 92.8999 242.6 92.6999L243.2 97.9C242.8 98.1 242.2 98.2 241.7 98.3Z" fill="#3A2014"/>
<path d="M265.7 72.2C267.5 72.9 269 73.8 270.2 75C271.4 76.2 272.4 77.6 273.1 79.3C273.8 81 274.1 82.9 274.1 84.9C274.1 87 273.8 88.9 273.1 90.6C272.4 92.3 271.4 93.8 270.2 95C269 96.2 267.4 97.2 265.7 97.8C263.9 98.5 262 98.8 259.9 98.8C257.8 98.8 255.8 98.5 254.1 97.8C252.3 97.1 250.8 96.2 249.6 95C248.4 93.8 247.4 92.3 246.7 90.6C246 88.9 245.7 87 245.7 84.9C245.7 82.8 246 81 246.7 79.3C247.4 77.6 248.4 76.2 249.6 75C250.8 73.8 252.4 72.9 254.1 72.2C255.8 71.5 257.8 71.2 259.9 71.2C262 71.2 264 71.5 265.7 72.2ZM265.7 91C267.2 89.5 267.9 87.5 267.9 85C267.9 82.5 267.2 80.6 265.7 79.1C264.2 77.6 262.3 76.9 259.9 76.9C257.5 76.9 255.5 77.6 254.1 79.1C252.6 80.6 251.9 82.5 251.9 85C251.9 87.5 252.6 89.5 254.1 91C255.6 92.5 257.5 93.3 259.9 93.3C262.3 93.2 264.2 92.5 265.7 91Z" fill="#3A2014"/>
<g clip-path="url(#clip1_587_49571)">
<path d="M81.918 8.58885C84.4464 8.89199 86.8736 8.99303 88.9974 8.99303C79.9965 3.33449 69.3775 0 58.0506 0C47.4315 0 37.4193 2.82927 28.9241 7.88153C32.8683 8.38676 39.9477 9.29617 47.1281 9.49826C57.7471 9.80139 65.6356 6.97213 81.918 8.58885Z" fill="#8DC63F"/>
<path d="M56.9381 20.5121C66.4446 21.2194 74.8387 21.7247 85.3566 21.5226C92.2337 21.4215 98.9085 21.1184 102.752 21.0173C101.336 19.2996 99.7175 17.5818 98.0994 16.0661C96.5824 16.0661 94.6609 15.9651 92.0314 15.864C84.7498 15.5609 75.7489 13.1358 66.1413 12.9337C56.6347 12.7316 45.7123 12.4285 38.9364 12.9337C32.1604 13.4389 21.946 14.7525 18.912 15.3588C17.2938 16.8745 15.7768 18.4912 14.2598 20.1079C16.4848 20.1079 19.9233 20.1079 24.272 20.1079C32.2616 20.0069 47.4316 19.8048 56.9381 20.5121Z" fill="#B0D235"/>
<path d="M19.2154 32.0315C26.1936 32.2335 31.4525 34.0524 48.6452 34.0524C65.8379 34.0524 76.6591 31.8294 83.8396 31.5262C89.3008 31.2231 103.358 31.4252 109.73 31.5262C108.718 29.5053 107.606 27.5855 106.392 25.7666C104.774 25.7666 102.65 25.8677 100.021 25.7666C93.7507 25.5646 77.0637 25.0593 67.5571 25.2614C58.0506 25.4635 41.0602 26.7771 32.565 26.9792C26.9015 27.0802 15.9791 26.8781 9.30428 26.7771C7.98955 28.8991 6.77595 31.021 5.66348 33.244C8.39408 32.7388 14.1587 31.9304 19.2154 32.0315Z" fill="#DBE120"/>
<path d="M33.4752 42.9442C41.667 42.7421 47.6338 42.7421 53.3984 43.2473C59.163 43.7526 70.3889 46.1777 88.2895 45.6724C100.527 45.3693 109.629 43.8536 114.18 42.9442C113.775 41.4285 113.269 39.9129 112.764 38.3972C109.932 38.5993 105.28 38.8014 97.5937 38.8014C82.626 38.8014 78.1761 38.8014 69.3775 37.7909C60.5789 36.7804 57.9494 35.9721 48.1395 36.2752C38.2284 36.5784 32.9695 38.2961 29.4298 38.2961C26.6992 38.2961 10.7201 38.4982 3.33741 38.5993C2.83174 40.0139 2.32607 41.4285 2.02267 42.8432L2.32607 43.4494C2.32607 43.4494 25.2834 43.0453 33.4752 42.9442Z" fill="#8DC63F"/>
<path d="M105.381 50.7247C99.1107 49.5122 93.3461 48.1986 80.401 48.7038C67.456 49.2091 60.3766 50.7247 53.7018 50.7247C47.027 50.7247 35.8012 51.23 22.9573 51.23C14.4621 51.23 5.56234 51.23 0.404534 51.23C0.202267 52.9477 0 54.7666 0 56.5854C5.1578 56.7875 18.8108 57.1916 28.1151 56.8885C39.6443 56.5854 40.959 58.1011 46.7236 58C53.3984 57.899 60.3766 55.9791 66.0401 56.2822C71.6024 56.5854 87.4804 56.0801 92.7393 55.5749C97.9983 55.0697 104.269 54.7666 109.73 54.8676C112.966 54.9686 114.989 54.9686 116.101 55.0697C116 53.6551 115.899 52.2404 115.697 50.9268C114.382 51.23 110.539 51.7352 105.381 50.7247Z" fill="#B0D235"/>
<path d="M76.2545 62.5471C68.9729 61.6377 63.5117 61.0314 50.9711 61.2335C38.4306 61.3346 32.2615 62.244 26.2946 62.5471C20.3277 62.8502 10.7201 63.1534 6.97811 62.7492C3.23618 62.4461 1.11238 62.1429 1.11238 62.1429L0.101044 62.0419C0.202177 63.6586 0.505577 66.0837 0.707844 67.5994C3.53958 67.3973 18.6085 66.5889 25.6878 66.5889C33.5762 66.5889 44.5997 67.4983 56.4323 68.1046C68.265 68.7109 79.2885 69.9234 89.8064 69.3171C98.605 68.8119 111.348 68.1046 115.191 67.9025C115.494 66.1847 115.697 64.568 115.798 62.8502C114.382 62.9513 111.044 63.0523 103.055 63.0523C91.2222 63.1534 83.5361 63.4565 76.2545 62.5471Z" fill="#CA897C"/>
<path d="M99.4141 73.5609C93.7507 73.4599 89.4019 72.9546 84.2441 72.5505C78.9852 72.1463 68.1639 73.2578 63.0061 73.662C57.9494 74.0661 49.8588 74.8745 41.8692 74.9755C33.9808 75.0766 29.0253 75.5818 22.1482 75.3797C16.1814 75.3797 5.15781 74.1672 2.12381 73.864C2.73061 75.8849 3.33741 77.9058 4.14648 79.8257C6.47255 79.7247 10.8213 79.5226 17.0916 79.5226C26.8004 79.4215 30.8457 81.1393 42.476 81.3414C54.1064 81.5435 62.7027 81.1393 72.4115 80.3309C82.1203 79.5226 85.8623 78.7142 95.8745 78.7142C103.864 78.7142 110.134 78.6132 112.258 78.5121C112.865 76.8954 113.371 75.1776 113.876 73.4599C112.561 73.4599 104.572 73.662 99.4141 73.5609Z" fill="#89373A"/>
<path d="M64.2197 85.2822C56.5336 84.9791 53.7019 84.3728 47.2293 84.3728C40.7568 84.3728 35.2956 85.5853 29.8344 86.0906C24.3732 86.4948 7.38275 86.0906 7.38275 86.0906L7.48388 86.4948C8.29295 87.9094 9.20315 89.324 10.1134 90.7387C12.6417 90.6376 17.0916 90.5366 22.2494 90.5366C30.34 90.5366 43.5885 90.6376 49.1508 90.6376C54.7132 90.6376 64.7254 92.6585 70.8945 93.0627C77.0637 93.3658 82.1203 93.9721 88.2895 94.0732C93.4473 94.1742 100.425 93.2648 104.673 92.6585C106.19 90.6376 107.505 88.6167 108.718 86.4948C106.696 86.4948 98.6051 86.4948 88.3906 86.3937C76.3557 86.1916 71.9059 85.6864 64.2197 85.2822Z" fill="#5B2A25"/>
<path d="M70.5911 97.1046C65.0288 97.5088 53.6007 95.7911 45.8134 96.0942C38.0262 96.2963 16.7881 98.9235 16.7881 98.9235L17.6983 99.7318C18.9119 100.944 20.2267 102.056 21.5414 103.167C23.2607 103.167 25.9913 103.369 28.6208 103.47C33.7786 103.774 36.7114 104.178 45.1055 104.481C53.4996 104.683 68.3662 103.167 74.7376 102.864C81.109 102.561 94.1552 103.369 94.1552 103.369H94.3575C96.6835 101.551 98.8073 99.5297 100.729 97.4078C98.8073 97.2057 93.9529 97.1047 89.0985 96.8015C82.9294 96.2963 76.1534 96.7005 70.5911 97.1046Z" fill="#341C15"/>
<path d="M31.2502 109.634C39.1386 113.575 48.7463 116 58.0506 116C66.9503 116 75.3444 113.979 82.9294 110.443L82.7271 110.24C82.7271 110.24 79.3897 109.23 66.0401 108.927C52.6905 108.624 59.5676 108.927 43.4874 108.624C37.925 108.523 33.8797 109.331 31.2502 109.23C31.2502 109.23 31.048 109.23 31.048 109.432C31.048 109.634 31.2502 109.634 31.2502 109.634Z" fill="#804E4D"/>
</g>
</g>
<defs>
<clipPath id="clip0_587_49571">
<rect width="412.7" height="114.8" fill="white"/>
</clipPath>
<clipPath id="clip1_587_49571">
<rect width="116" height="116" fill="white"/>
</clipPath>
</defs>
</svg>
